<svg width="57" height="57" viewBox="0 0 57 57" fill="none" xmlns="http://www.w3.org/2000/svg">
<path d="M28.751 57.478C27.3534 57.4704 25.9643 57.2585 24.628 56.849C23.1625 56.3994 21.746 55.8034 20.4 55.07C18.5593 54.1236 16.8009 53.0251 15.143 51.786C13.6508 50.6173 12.2405 49.3476 10.922 47.986C9.136 46.2 7.47 44.373 6.1 42.695C4.58477 40.9089 3.27645 38.9572 2.2 36.877L2.109 36.687V36.681L2.088 36.637V36.627V36.617L1.982 36.39L1.975 36.375L1.968 36.36L1.868 36.141L1.855 36.113V36.105L1.781 35.941L1.758 35.89L1.741 35.851L1.727 35.82V35.814L1.65 35.639L1.642 35.619L1.621 35.6L1.53 35.388L1.515 35.353L1.426 35.138L1.42 35.124L1.414 35.11L1.33 34.9L1.32 34.875L1.239 34.668V34.661L1.228 34.633L1.151 34.433L1.144 34.413L1.135 34.39C1.111 34.326 1.088 34.262 1.064 34.196V34.183L1.05 34.144C1.023 34.07 1.002 34.009 0.983 33.955V33.943L0.968 33.898L0.89 33.7L0.871 33.642L0.81 33.458L0.8 33.429L0.792 33.4C0.77 33.332 0.752 33.273 0.735 33.219L0.718 33.162L0.669001 33L0.660001 32.969V32.963L0.65 32.928L0.600001 32.768L0.592 32.741L0.584 32.7C0.567 32.637 0.552 32.582 0.538 32.53L0.528 32.5L0.519 32.467C0.506 32.416 0.491 32.361 0.476 32.299L0.461 32.239V32.225C0.45 32.18 0.435 32.125 0.421 32.061L0.4 31.982C0.388 31.933 0.376 31.882 0.363 31.82L0.355 31.782L0.346 31.742C0.334 31.688 0.323 31.634 0.312 31.581L0.3 31.507C0.292 31.469 0.285 31.431 0.277 31.393V31.373V31.356V31.35L0.262 31.27V31.26L0.241 31.143C0.234 31.106 0.228 31.069 0.222 31.032L0.202 30.91C0.196 30.875 0.191 30.84 0.185 30.81C0.179 30.78 0.172 30.723 0.165 30.679L0.159 30.636L0.153 30.593C0.146 30.542 0.139 30.493 0.133 30.442L0.11 30.364V30.35C0.1 30.292 0.1 30.244 0.0900005 30.2C0.0900005 30.173 0.0840005 30.146 0.0810005 30.119V30.109C0.0760005 30.061 0.0710005 30.009 0.0660005 29.961C0.0660005 29.933 0.0610005 29.904 0.0580005 29.876V29.87C0.0540005 29.8287 0.0503338 29.7873 0.0470005 29.746C0.0470005 29.709 0.0410005 29.673 0.0390005 29.636C0.0370005 29.599 0.0340005 29.563 0.0310005 29.527C0.0310005 29.486 0.0260005 29.445 0.0240005 29.403C0.0220005 29.361 0.0240005 29.334 0.0180005 29.303C0.0120005 29.272 0.0180005 29.22 0.0130005 29.179V29.173C0.0130005 29.138 0.0130005 29.103 0.0130005 29.068C0.0130005 29.033 0.0130005 29.013 0.0130005 28.986V28.946C0.0130005 28.908 0.0130005 28.869 0.0130005 28.831C0.0130005 28.793 0.0130005 28.769 0.0130005 28.738V28.505C0.0130005 28.457 0.0130005 28.409 0.0130005 28.361C0.0130005 28.327 0.0130005 28.293 0.0130005 28.261C0.0130005 28.229 0.0130005 28.176 0.0130005 28.133C0.0130005 28.109 0.0130005 28.086 0.0130005 28.062V28.027C0.0130005 27.973 0.0130005 27.927 0.0200005 27.881C0.0200005 27.854 0.0200005 27.826 0.0200005 27.799C0.0200005 27.755 0.0250005 27.708 0.0290005 27.652C0.0290005 27.626 0.0290005 27.599 0.0350005 27.573C0.0350005 27.523 0.0430005 27.473 0.0470005 27.423V27.374V27.339C0.0516672 27.289 0.0566672 27.239 0.0620005 27.189L0.0700005 27.11V27.094C0.0700005 27.049 0.0800005 27 0.0880005 26.942C0.0880005 26.924 0.0880005 26.906 0.0950005 26.888V26.862V26.852C0.101 26.802 0.108 26.752 0.115 26.702L0.125 26.631C0.133 26.577 0.141 26.523 0.149 26.47L0.159 26.41V26.401C0.167 26.351 0.176 26.296 0.187 26.233L0.199 26.163C0.209 26.105 0.22 26.046 0.231 25.987L0.24 25.941V25.916C0.251 25.858 0.263 25.798 0.275 25.74L0.285 25.69V25.681C0.297 25.623 0.31 25.563 0.323 25.504V25.485L0.331 25.448C0.343 25.393 0.357 25.335 0.373 25.267L0.386 25.214C0.4 25.157 0.415 25.095 0.434 25.019L0.441 24.992L0.447 24.97C0.464 24.903 0.482 24.835 0.502 24.761L0.507001 24.742L0.513 24.721C0.533 24.648 0.551 24.583 0.568 24.521L0.581 24.475C0.598 24.416 0.619 24.346 0.64 24.275V24.267L0.651 24.231C0.673 24.159 0.695 24.089 0.715 24.025L0.726 23.99C0.748 23.921 0.772 23.847 0.8 23.763L0.806 23.744V23.737C0.831 23.661 0.858001 23.584 0.882001 23.513L0.894 23.48C0.919 23.407 0.946 23.333 0.971 23.264L0.977 23.248L0.983 23.232C1.014 23.148 1.04 23.079 1.064 23.013L1.074 22.986C1.103 22.911 1.133 22.833 1.164 22.754L1.17 22.739C1.2 22.662 1.233 22.581 1.27 22.491L1.277 22.474C1.311 22.391 1.343 22.313 1.377 22.237L1.388 22.211C1.417 22.142 1.449 22.068 1.488 21.979L1.5 21.952C1.53 21.884 1.563 21.808 1.606 21.714L1.615 21.694C1.66 21.594 1.698 21.512 1.733 21.437C3.817 16.957 6.933 13.837 9.952 10.821L10.012 10.761C11.768 9.005 13.407 7.506 15.022 6.179C16.8691 4.64499 18.8372 3.26282 20.907 2.046C22.0576 1.3613 23.2923 0.828855 24.58 0.462C25.6835 0.156957 26.8231 0.00156739 27.968 0C29.5076 0.0111137 31.0354 0.271137 32.492 0.77C33.8858 1.24623 35.2347 1.8449 36.523 2.559C38.5805 3.66396 40.5545 4.91797 42.429 6.311C44.1934 7.62519 45.8604 9.06528 47.417 10.62C49.0419 12.2638 50.5292 14.038 51.864 15.925C53.1113 17.6097 54.1408 19.4452 54.928 21.388C55.4411 22.7467 55.8772 24.1332 56.234 25.541C56.5452 26.7646 56.7202 28.0189 56.756 29.281C56.7806 30.5178 56.6308 31.752 56.311 32.947C55.9342 34.3143 55.3989 35.633 54.716 36.876C53.7433 38.7001 52.6052 40.431 51.316 42.047C50.0321 43.6332 48.6578 45.144 47.2 46.572C45.6251 48.1467 43.966 49.6348 42.23 51.03C40.4131 52.493 38.5074 53.8422 36.524 55.07C34.2138 56.5935 31.5179 57.4286 28.751 57.478V57.478ZM33.006 51.108C31.8522 51.7872 30.6058 52.2951 29.306 52.616C30.6059 52.2952 31.8522 51.7872 33.006 51.108V51.108ZM16.03 48.814C16.151 48.896 16.276 48.979 16.401 49.06C16.263 48.97 16.142 48.889 16.03 48.814ZM11.808 45.291L12.021 45.498L11.808 45.291ZM13.845 25.156L13.779 25.299V25.31L13.72 25.442L13.714 25.457L13.658 25.586V25.593V25.6L13.603 25.732V25.741L13.548 25.878V25.884L13.498 26.013V26.022V26.03L13.453 26.151L13.447 26.166L13.404 26.286V26.296V26.304C13.39 26.342 13.377 26.383 13.362 26.428V26.438C13.345 26.489 13.332 26.527 13.321 26.564L13.315 26.583L13.28 26.698L13.273 26.722C13.2617 26.7587 13.2507 26.7953 13.24 26.832V26.845V26.858L13.209 26.968L13.158 27L13.152 27.024L13.128 27.114L13.121 27.141C13.112 27.177 13.103 27.213 13.094 27.249L13.087 27.278L13.064 27.378L13.058 27.406L13.05 27.444L13.037 27.505V27.521V27.538L13.02 27.621V27.637L13 27.689L12.988 27.753L12.982 27.787V27.802V27.823C12.977 27.854 12.972 27.884 12.967 27.915L12.961 27.953L12.948 28.043L12.942 28.081C12.942 28.111 12.934 28.14 12.93 28.17V28.193V28.216C12.93 28.244 12.923 28.272 12.92 28.3V28.328V28.353V28.38C12.92 28.399 12.92 28.418 12.915 28.436V28.483V28.508C12.915 28.527 12.915 28.547 12.915 28.566C12.915 28.585 12.915 28.595 12.915 28.61C12.915 28.625 12.915 28.662 12.91 28.688C12.91 28.698 12.91 28.708 12.91 28.719V28.737C12.91 28.763 12.91 28.789 12.91 28.816C12.91 28.843 12.91 28.854 12.91 28.873C12.91 28.895 12.91 28.918 12.91 28.94V29.003C12.91 29.028 12.91 29.053 12.91 29.078V29.259C12.91 29.28 12.91 29.302 12.91 29.323C12.91 29.344 12.91 29.368 12.91 29.391V29.449C12.91 29.473 12.91 29.497 12.91 29.521V29.55V29.579C12.91 29.595 12.91 29.61 12.91 29.626V29.65V29.681V29.711C12.91 29.731 12.91 29.752 12.91 29.772V29.806V29.843V29.889C12.91 29.916 12.915 29.943 12.918 29.97C12.918 29.981 12.918 29.991 12.918 30.002V30.02C12.918 30.048 12.924 30.075 12.928 30.102V30.123V30.151L12.934 30.193L12.939 30.231L12.946 30.279V30.303L12.953 30.349V30.373V30.402L12.959 30.436V30.465V30.494L12.965 30.527L12.978 30.595V30.614L12.985 30.652V30.671L12.995 30.723L13.003 30.761C13.009 30.791 13.0153 30.8207 13.022 30.85L13.031 30.893L13.045 30.954L13.051 30.982V31.003V31.022L13.072 31.11L13.082 31.151C13.091 31.187 13.099 31.217 13.106 31.244L13.116 31.282L13.141 31.373L13.146 31.391L13.151 31.409C13.159 31.439 13.168 31.468 13.176 31.498L13.187 31.537L13.214 31.628L13.219 31.645V31.66L13.25 31.76V31.775V31.791L13.266 31.839L13.283 31.89L13.29 31.91V31.922L13.316 31.999L13.324 32.022L13.335 32.053V32.067L13.366 32.155L13.376 32.184L13.416 32.292L13.422 32.307V32.317L13.465 32.43L13.473 32.45L13.518 32.565L13.524 32.579L13.564 32.679L13.571 32.696V32.703V32.712C13.587 32.751 13.604 32.791 13.621 32.831L13.627 32.846L13.677 32.964L13.684 32.981L13.723 33.07L13.734 33.095L13.744 33.117L13.797 33.236V33.243L13.803 33.256L13.859 33.378V33.388V33.395L13.875 33.429L13.918 33.522V33.528L13.939 33.571L13.981 33.66C15.2867 35.9416 16.9175 38.021 18.822 39.833C20.3332 41.4424 22.1152 42.774 24.087 43.767C25.4972 44.5935 27.0922 45.0532 28.726 45.104C30.263 45.0768 31.7606 44.6131 33.044 43.767C35.1946 42.4256 37.1843 40.8419 38.974 39.047C40.6373 37.4795 42.0462 35.6624 43.15 33.661C44.79 30.593 44.476 28.361 43.268 25.061C42.2888 22.8607 40.9094 20.8615 39.2 19.165C37.4122 17.3852 35.3736 15.8766 33.149 14.687C31.7078 13.8281 30.0761 13.3399 28.4 13.266C27.0229 13.2806 25.6753 13.6672 24.5 14.385C22.2788 15.7259 20.244 17.3536 18.448 19.226L18.416 19.258C16.547 20.93 14.9992 22.9296 13.849 25.158L13.845 25.156ZM11.163 44.656L11.534 45.024L11.163 44.656ZM43.729 42.466C43.438 42.766 43.129 43.08 42.8 43.41C42.415 43.795 42.02 44.178 41.619 44.555C42.019 44.178 42.419 43.795 42.8 43.41C43.131 43.078 43.439 42.764 43.729 42.464V42.466ZM49.573 34.538C49.503 34.675 49.431 34.814 49.357 34.953C48.8737 35.8596 48.3429 36.7402 47.767 37.591C48.3429 36.7402 48.8737 35.8596 49.357 34.953C49.432 34.812 49.5 34.673 49.574 34.535L49.573 34.538ZM50.235 23.467C50.5969 24.5808 50.8622 25.7237 51.028 26.883C50.8644 25.7223 50.599 24.5782 50.235 23.464V23.467ZM41.459 10.6C41.985 11.072 42.4953 11.5557 42.99 12.051C44.4078 13.4849 45.7055 15.0328 46.87 16.679C47.376 17.395 47.833 18.096 48.228 18.764C46.7592 16.3232 45.0004 14.0692 42.99 12.051C42.4967 11.5543 41.9863 11.0707 41.459 10.6ZM32.342 4.428C32.707 4.604 33.082 4.796 33.487 5.014C34.61 5.614 35.715 6.278 36.77 6.975C35.717 6.275 34.612 5.619 33.488 5.014C33.082 4.8 32.708 4.6 32.342 4.428ZM14.517 31.982C14.3284 31.5431 14.1694 31.0921 14.041 30.632C13.88 30.0611 13.7884 29.4728 13.768 28.88C13.8236 29.9509 14.0779 31.0021 14.518 31.98L14.517 31.982Z" fill="#53B7D1"/>
</svg>
